<svg width="20" height="20" viewBox="0 0 20 20" fill="none" xmlns="http://www.w3.org/2000/svg">
    <path
        d="M14.1641 3.33203H12.4974C12.0372 3.33203 11.6641 3.70513 11.6641 4.16536V15.832C11.6641 16.2923 12.0372 16.6654 12.4974 16.6654H14.1641C14.6243 16.6654 14.9974 16.2923 14.9974 15.832V4.16536C14.9974 3.70513 14.6243 3.33203 14.1641 3.33203Z"
        stroke="white" stroke-width="2" stroke-linecap="round" stroke-linejoin="round" />
    <path
        d="M7.5 3.33203H5.83333C5.3731 3.33203 5 3.70513 5 4.16536V15.832C5 16.2923 5.3731 16.6654 5.83333 16.6654H7.5C7.96024 16.6654 8.33333 16.2923 8.33333 15.832V4.16536C8.33333 3.70513 7.96024 3.33203 7.5 3.33203Z"
        stroke="white" stroke-width="2" stroke-linecap="round" stroke-linejoin="round" />
</svg>